<svg width="25" height="25" viewBox="0 0 25 25" fill="none" xmlns="http://www.w3.org/2000/svg">
<path fill-rule="evenodd" clip-rule="evenodd" d="M14.0231 12.7481L18.281 8.49018C18.6689 8.10237 18.6689 7.47554 18.281 7.08773C17.8932 6.69992 17.2664 6.69992 16.8786 7.08773L12.6207 11.3457L8.36274 7.08773C7.97493 6.69992 7.34809 6.69992 6.96029 7.08773C6.57248 7.47554 6.57248 8.10237 6.96029 8.49018L11.2182 12.7481L6.96029 17.006C6.57248 17.3938 6.57248 18.0207 6.96029 18.4085C7.1537 18.6019 7.4076 18.6991 7.66151 18.6991C7.91542 18.6991 8.16933 18.6019 8.36274 18.4085L12.6207 14.1506L16.8786 18.4085C17.072 18.6019 17.3259 18.6991 17.5798 18.6991C17.8337 18.6991 18.0876 18.6019 18.281 18.4085C18.6689 18.0207 18.6689 17.3938 18.281 17.006L14.0231 12.7481Z" fill="#231F20"/>
<mask id="mask0_4056_15180" style="mask-type:luminance" maskUnits="userSpaceOnUse" x="6" y="6" width="13" height="13">
<path fill-rule="evenodd" clip-rule="evenodd" d="M14.0231 12.7481L18.281 8.49018C18.6689 8.10237 18.6689 7.47554 18.281 7.08773C17.8932 6.69992 17.2664 6.69992 16.8786 7.08773L12.6207 11.3457L8.36274 7.08773C7.97493 6.69992 7.34809 6.69992 6.96029 7.08773C6.57248 7.47554 6.57248 8.10237 6.96029 8.49018L11.2182 12.7481L6.96029 17.006C6.57248 17.3938 6.57248 18.0207 6.96029 18.4085C7.1537 18.6019 7.4076 18.6991 7.66151 18.6991C7.91542 18.6991 8.16933 18.6019 8.36274 18.4085L12.6207 14.1506L16.8786 18.4085C17.072 18.6019 17.3259 18.6991 17.5798 18.6991C17.8337 18.6991 18.0876 18.6019 18.281 18.4085C18.6689 18.0207 18.6689 17.3938 18.281 17.006L14.0231 12.7481Z" fill="white"/>
</mask>
<g mask="url(#mask0_4056_15180)">
<rect x="0.718262" y="0.847656" width="23.8039" height="23.8039" fill="white"/>
</g>
</svg>
