<svg width="25" height="24" viewBox="0 0 25 24" fill="none" xmlns="http://www.w3.org/2000/svg">
<path d="M20.4287 16.0703C20.9464 16.0703 21.3701 16.494 21.3701 17.0117V17.1133C21.3699 17.6308 20.9463 18.0537 20.4287 18.0537H4.45801C3.9404 18.0537 3.51779 17.6308 3.51758 17.1133V17.0117C3.51758 16.494 3.94027 16.0703 4.45801 16.0703H20.4287ZM20.4287 11.1113C20.9464 11.1113 21.3701 11.535 21.3701 12.0527V12.1533C21.3701 12.6711 20.9464 13.0947 20.4287 13.0947H4.45801C3.94027 13.0947 3.51758 12.6711 3.51758 12.1533V12.0527C3.51758 11.535 3.94027 11.1113 4.45801 11.1113H20.4287ZM20.4287 6.15234C20.9464 6.15234 21.3701 6.57601 21.3701 7.09375V7.19434C21.3701 7.71207 20.9464 8.13574 20.4287 8.13574H4.45801C3.94027 8.13574 3.51758 7.71207 3.51758 7.19434V7.09375C3.51758 6.57601 3.94027 6.15234 4.45801 6.15234H20.4287Z" fill="#231F20"/>
<mask id="mask0_4056_14376" style="mask-type:luminance" maskUnits="userSpaceOnUse" x="3" y="6" width="19" height="13">
<path d="M20.4287 16.0703C20.9464 16.0703 21.3701 16.494 21.3701 17.0117V17.1133C21.3699 17.6308 20.9463 18.0537 20.4287 18.0537H4.45801C3.9404 18.0537 3.51779 17.6308 3.51758 17.1133V17.0117C3.51758 16.494 3.94027 16.0703 4.45801 16.0703H20.4287ZM20.4287 11.1113C20.9464 11.1113 21.3701 11.535 21.3701 12.0527V12.1533C21.3701 12.6711 20.9464 13.0947 20.4287 13.0947H4.45801C3.94027 13.0947 3.51758 12.6711 3.51758 12.1533V12.0527C3.51758 11.535 3.94027 11.1113 4.45801 11.1113H20.4287ZM20.4287 6.15234C20.9464 6.15234 21.3701 6.57601 21.3701 7.09375V7.19434C21.3701 7.71207 20.9464 8.13574 20.4287 8.13574H4.45801C3.94027 8.13574 3.51758 7.71207 3.51758 7.19434V7.09375C3.51758 6.57601 3.94027 6.15234 4.45801 6.15234H20.4287Z" fill="white"/>
</mask>
<g mask="url(#mask0_4056_14376)">
<rect x="0.541504" y="0.199219" width="23.8039" height="23.8039" fill="white"/>
</g>
</svg>
